<svg preserveAspectRatio="xMidYMid meet" width="37.3916" height="29.9789" overflow="visible" style="display: block;" viewBox="0 0 37.3916 29.9789" fill="none" xmlns="http://www.w3.org/2000/svg">
<g id="_&#235;&#160;&#136;&#236;&#157;&#180;&#236;&#150;&#180;_1-2">
<path id="Vector" d="M29.5911 6.59493H27.7999C26.4433 6.59493 25.2351 6.80664 24.1752 7.23007C23.1154 7.6535 22.2251 8.23572 21.5044 8.97672C20.7625 9.71772 20.2008 10.5963 19.8299 11.602C19.4271 12.6394 19.2363 13.7615 19.2363 14.9788C19.2363 16.1962 19.4377 17.2865 19.8299 18.3239C20.2326 19.3613 20.7943 20.2506 21.5468 20.9916C22.2675 21.7326 23.1578 22.3148 24.2176 22.7382C25.2775 23.1616 26.4751 23.3733 27.7999 23.3733H29.5911L29.5911 6.59493ZM37.3916 29.9789H25.8392C23.7937 29.9789 21.886 29.566 20.1054 28.7509C18.3037 27.9252 16.7351 26.8243 15.4103 25.4482C14.0537 24.0932 12.9938 22.5053 12.2201 20.674C11.4464 18.8744 11.0649 16.9796 11.0649 14.9894C11.0649 12.9993 11.4464 11.1362 12.2201 9.30488C12.962 7.5053 14.0113 5.90685 15.3679 4.5307C16.6927 3.15455 18.2613 2.05364 20.063 1.22795C21.8436 0.402259 23.7619 7.99889e-07 25.8392 7.99889e-07H37.3916L37.3916 29.9789Z" fill="var(--fill-0, #0083F0)"/>
<path id="Vector_2" d="M0 8.94222C0 8.30707 0.116588 7.71427 0.360354 7.15322C0.60412 6.57101 0.932668 6.06289 1.35661 5.63946C1.78055 5.21603 2.26808 4.88787 2.8298 4.6444C3.41272 4.40093 4.02744 4.28448 4.66335 4.28448C5.29926 4.28448 5.89278 4.40093 6.4545 4.6444C7.03742 4.88787 7.54615 5.21603 7.97009 5.63946C8.39403 6.06289 8.72258 6.57101 8.96635 7.15322C9.21011 7.71427 9.3267 8.30707 9.3267 8.94222C9.3267 9.57736 9.21011 10.1913 8.96635 10.7736C8.72258 11.3346 8.39403 11.8215 7.97009 12.245C7.54615 12.6684 7.03742 12.9966 6.4545 13.24C5.89278 13.4835 5.29926 13.6 4.66335 13.6C4.02744 13.6 3.41272 13.4835 2.8298 13.24C2.26808 12.9966 1.78055 12.6684 1.35661 12.245C0.932668 11.8215 0.60412 11.3346 0.360354 10.7736C0.116588 10.1913 0 9.57736 0 8.94222Z" fill="var(--fill-0, #0083F0)"/>
<path id="Vector_3" d="M0 22.3443C0 21.7092 0.116588 21.1164 0.360354 20.5553C0.60412 19.9731 0.932668 19.465 1.35661 19.0416C1.78055 18.6181 2.26808 18.29 2.8298 18.0465C3.41272 17.803 4.02744 17.6866 4.66335 17.6866C5.29926 17.6866 5.89278 17.803 6.4545 18.0465C7.03742 18.29 7.54615 18.6181 7.97009 19.0416C8.39403 19.465 8.72258 19.9731 8.96635 20.5553C9.21011 21.1164 9.3267 21.7092 9.3267 22.3443C9.3267 22.9795 9.21011 23.5935 8.96635 24.1757C8.72258 24.7367 8.39403 25.2237 7.97009 25.6471C7.54615 26.0705 7.03742 26.3987 6.4545 26.6422C5.89278 26.8856 5.29926 27.0021 4.66335 27.0021C4.02744 27.0021 3.41272 26.8856 2.8298 26.6422C2.26808 26.3987 1.78055 26.0705 1.35661 25.6471C0.932668 25.2237 0.60412 24.7367 0.360354 24.1757C0.116588 23.5935 0 22.9795 0 22.3443Z" fill="var(--fill-0, #0083F0)"/>
</g>
</svg>
