<svg width="200" height="50" viewBox="0 0 200 50" fill="none" xmlns="http://www.w3.org/2000/svg">
<path d="M0.150068 41.0562C4.49091 41.0562 11.8018 41.0562 19.3412 41.0562C19.3412 37.4016 19.3412 33.2902 19.5696 31.463C21.1689 31.2345 25.9666 31.2345 28.0228 31.463C28.0228 33.7471 28.0228 37.63 28.0228 41.0562C36.933 41.0562 44.9293 41.0562 47.4424 41.0562C47.6708 43.1119 47.6708 45.8528 47.4424 48.1369C42.6446 48.3653 6.77556 48.3653 0.378534 48.1369C-0.0783969 46.0812 -0.0783969 43.1119 0.150068 41.0562ZM3.12012 2.22648C8.37482 1.99807 38.3038 1.99807 43.7869 2.22648C44.0154 4.28217 44.0154 7.70832 43.7869 9.76401C39.903 9.76401 15.6857 9.76401 11.5733 9.76401C11.5733 12.2765 11.5733 18.672 11.5733 20.9561C15.9142 20.9561 40.8169 20.9561 44.7008 20.9561C44.9293 23.0118 44.9293 26.6663 44.7008 28.2652C40.1315 28.4936 8.37482 28.4936 2.89165 28.2652C2.66319 21.8697 2.89165 8.39355 3.12012 2.22648Z" fill="white"/>
<path d="M51.5546 1.08495C56.8093 0.856537 73.4873 0.856537 78.9704 1.08495C79.1989 3.14064 79.1989 5.88156 78.9704 7.93724C75.0865 7.93724 63.8917 7.93724 59.7794 7.93724C59.7794 10.4498 59.7794 14.3327 59.7794 16.6168C64.1202 16.6168 77.1427 16.6168 81.2551 16.6168C81.4836 18.6725 81.4836 21.8703 81.2551 23.4691C76.6858 23.6975 56.3524 23.6975 51.5546 23.4691C51.0977 17.3021 51.0977 7.48042 51.5546 1.08495ZM53.3823 28.4941C56.8093 28.2657 92.6784 28.2657 94.0491 28.4941C94.2776 32.8339 94.2776 45.6249 94.0491 49.7363C90.3937 49.9647 57.4947 50.1931 53.3823 49.7363C53.1539 43.5692 53.1539 33.976 53.3823 28.4941ZM86.0529 42.884C86.0529 41.2851 86.0529 37.4021 86.0529 35.5748C83.0828 35.3464 65.0341 35.5748 61.3786 35.5748C61.3786 37.1737 61.1502 40.8283 61.3786 42.884C63.8917 42.884 83.7682 42.884 86.0529 42.884ZM86.0529 0.171307C87.6521 -0.0571025 92.2214 -0.0571025 94.2776 0.171307C94.2776 2.227 94.2776 5.19633 94.2776 8.39406C96.3338 8.39406 97.9331 8.39406 99.0754 8.39406C99.3039 10.4498 99.3039 13.6475 99.0754 15.7032C98.1615 15.7032 96.5623 15.9316 94.2776 15.9316C94.2776 20.043 94.2776 23.6975 94.2776 25.7532C92.6784 25.9816 88.1091 25.9816 86.0529 25.7532C85.8244 21.4134 85.8244 4.28269 86.0529 0.171307Z" fill="white"/>
<path d="M100.903 41.0562C105.244 41.0562 112.555 41.0562 120.323 41.0562C120.323 37.4016 120.323 33.2902 120.323 31.463C121.922 31.2345 126.72 31.2345 128.776 31.463C128.776 33.7471 128.776 37.63 128.776 41.0562C137.686 41.0562 145.683 41.0562 148.196 41.0562C148.424 43.1119 148.424 45.8528 148.196 48.1369C143.398 48.3653 107.529 48.3653 101.132 48.1369C100.675 46.0812 100.675 43.1119 100.903 41.0562ZM103.874 2.22648C109.128 1.99807 139.057 1.99807 144.54 2.22648C144.769 4.28217 144.769 7.70832 144.54 9.76401C140.656 9.76401 116.439 9.76401 112.327 9.76401C112.327 12.2765 112.327 18.672 112.327 20.9561C116.668 20.9561 141.57 20.9561 145.454 20.9561C145.683 23.0118 145.683 26.6663 145.454 28.2652C140.885 28.4936 109.128 28.4936 103.645 28.2652C103.645 21.8697 103.645 8.39355 103.874 2.22648Z" fill="white"/>
<path d="M152.308 1.08495C157.563 0.856537 174.24 0.856537 179.724 1.08495C179.952 3.14064 179.952 5.88156 179.724 7.93724C175.84 7.93724 164.645 7.93724 160.533 7.93724C160.533 10.4498 160.533 14.3327 160.533 16.6168C164.873 16.6168 177.896 16.6168 182.008 16.6168C182.237 18.6725 182.237 21.8703 182.008 23.4691C177.439 23.6975 157.334 23.6975 152.308 23.4691C152.079 17.3021 152.079 7.48042 152.308 1.08495ZM154.364 28.4941C157.791 28.2657 193.66 28.2657 195.031 28.4941C195.259 32.8339 195.259 45.6249 195.031 49.7363C191.375 49.9647 158.476 50.1931 154.364 49.7363C153.907 43.5692 154.136 33.976 154.364 28.4941ZM187.035 42.884C187.263 41.2851 187.263 37.4021 187.035 35.5748C184.065 35.3464 166.016 35.5748 162.36 35.5748C162.132 37.1737 162.132 40.8283 162.36 42.884C164.873 42.884 184.75 42.884 187.035 42.884ZM186.806 0.171307C188.405 -0.0571025 192.975 -0.0571025 195.031 0.171307C195.031 2.227 195.031 5.19633 195.031 8.39406C197.087 8.39406 198.686 8.39406 199.829 8.39406C200.057 10.4498 200.057 13.6475 199.829 15.7032C198.915 15.7032 197.315 15.9316 195.031 15.9316C195.031 20.043 195.031 23.6975 194.802 25.7532C193.203 25.9816 188.634 25.9816 186.578 25.7532C186.578 21.4134 186.578 4.28269 186.806 0.171307Z" fill="white"/>
</svg>
