<svg width="1800" height="450" viewBox="0 0 1800 450" fill="none" xmlns="http://www.w3.org/2000/svg">
<path d="M1.35062 369.505C40.4182 369.505 106.216 369.505 174.07 369.505C174.07 336.614 174.07 299.612 176.127 283.166C190.52 281.11 233.7 281.11 252.206 283.166C252.206 303.723 252.206 338.67 252.206 369.505C332.397 369.505 404.363 369.505 426.981 369.505C429.038 388.006 429.038 412.675 426.981 433.231C383.801 435.287 60.9801 435.287 3.4068 433.231C-0.705572 414.73 -0.705572 388.006 1.35062 369.505ZM28.0811 20.0379C75.3734 17.9822 344.734 17.9822 394.082 20.0379C396.139 38.5391 396.139 69.3744 394.082 87.8756C359.127 87.8756 141.171 87.8756 104.16 87.8756C104.16 110.488 104.16 168.047 104.16 188.604C143.228 188.604 367.352 188.604 402.307 188.604C404.363 207.106 404.363 239.997 402.307 254.386C361.183 256.442 75.3734 256.442 26.0249 254.386C23.9687 196.827 26.0249 75.5415 28.0811 20.0379Z" fill="#0083F0"/>
<path d="M463.993 9.76452C511.285 7.70883 661.387 7.70883 710.735 9.76452C712.791 28.2657 712.791 52.934 710.735 71.4352C675.78 71.4352 575.027 71.4352 538.015 71.4352C538.015 94.0478 538.015 128.995 538.015 149.551C577.083 149.551 694.286 149.551 731.297 149.551C733.353 168.053 733.353 196.832 731.297 211.222C690.173 213.278 507.173 213.278 463.993 211.222C459.88 155.718 459.88 67.3238 463.993 9.76452ZM480.442 256.447C511.285 254.392 834.106 254.392 846.443 256.447C848.5 295.505 848.5 410.624 846.443 447.626C813.544 449.682 517.453 451.738 480.442 447.626C478.386 392.123 478.386 305.784 480.442 256.447ZM774.477 385.956C774.477 371.566 774.477 336.619 774.477 320.174C747.746 318.118 585.308 320.174 552.409 320.174C552.409 334.563 550.352 367.454 552.409 385.956C575.027 385.956 753.915 385.956 774.477 385.956ZM774.477 1.54177C788.87 -0.513922 829.994 -0.513922 848.5 1.54177C848.5 20.043 848.5 46.7669 848.5 75.5466C867.005 75.5466 881.399 75.5466 891.68 75.5466C893.736 94.0478 893.736 122.827 891.68 141.329C883.455 141.329 869.061 143.384 848.5 143.384C848.5 180.387 848.5 213.278 848.5 231.779C834.106 233.835 792.983 233.835 774.477 231.779C772.421 192.721 772.421 38.5442 774.477 1.54177Z" fill="#0083F0"/>
<path d="M908.131 369.505C947.199 369.505 1013 369.505 1082.91 369.505C1082.91 336.614 1082.91 299.612 1082.91 283.166C1097.3 281.11 1140.48 281.11 1158.99 283.166C1158.99 303.723 1158.99 338.67 1158.99 369.505C1239.18 369.505 1311.14 369.505 1333.76 369.505C1335.82 388.006 1335.82 412.675 1333.76 433.231C1290.58 435.287 967.761 435.287 910.188 433.231C906.075 414.73 906.075 388.006 908.131 369.505ZM934.862 20.0379C982.154 17.9822 1251.51 17.9822 1300.86 20.0379C1302.92 38.5391 1302.92 69.3744 1300.86 87.8756C1265.91 87.8756 1047.95 87.8756 1010.94 87.8756C1010.94 110.488 1010.94 168.047 1010.94 188.604C1050.01 188.604 1274.13 188.604 1309.09 188.604C1311.14 207.106 1311.14 239.997 1309.09 254.386C1267.96 256.442 982.154 256.442 932.806 254.386C932.806 196.827 932.806 75.5415 934.862 20.0379Z" fill="#0083F0"/>
<path d="M1370.77 9.76452C1418.06 7.70883 1568.16 7.70883 1617.51 9.76452C1619.57 28.2657 1619.57 52.934 1617.51 71.4352C1582.56 71.4352 1481.8 71.4352 1444.79 71.4352C1444.79 94.0478 1444.79 128.995 1444.79 149.551C1483.86 149.551 1601.06 149.551 1638.07 149.551C1640.13 168.053 1640.13 196.832 1638.07 211.222C1596.95 213.278 1416.01 213.278 1370.77 211.222C1368.71 155.718 1368.71 67.3238 1370.77 9.76452ZM1389.28 256.447C1420.12 254.392 1742.94 254.392 1755.28 256.447C1757.33 295.505 1757.33 410.624 1755.28 447.626C1722.38 449.682 1426.29 451.738 1389.28 447.626C1385.16 392.123 1387.22 305.784 1389.28 256.447ZM1683.31 385.956C1685.37 371.566 1685.37 336.619 1683.31 320.174C1656.58 318.118 1494.14 320.174 1461.24 320.174C1459.19 334.563 1459.19 367.454 1461.24 385.956C1483.86 385.956 1662.75 385.956 1683.31 385.956ZM1681.25 1.54177C1695.65 -0.513922 1736.77 -0.513922 1755.28 1.54177C1755.28 20.043 1755.28 46.7669 1755.28 75.5466C1773.78 75.5466 1788.18 75.5466 1798.46 75.5466C1800.51 94.0478 1800.51 122.827 1798.46 141.329C1790.23 141.329 1775.84 143.384 1755.28 143.384C1755.28 180.387 1755.28 213.278 1753.22 231.779C1738.83 233.835 1697.7 233.835 1679.2 231.779C1679.2 192.721 1679.2 38.5442 1681.25 1.54177Z" fill="#0083F0"/>
</svg>
