<svg width="1024" height="1024" viewBox="0 0 1024 1024" fill="none" xmlns="http://www.w3.org/2000/svg">
<rect width="1024" height="1024" rx="144" fill="#0083F0"/>
<path d="M381.007 801.487H404.551C422.381 801.487 438.264 798.774 452.195 793.351C466.125 787.928 477.829 780.47 487.301 770.979C497.052 761.487 504.436 750.232 509.312 737.351C514.605 724.062 517.114 709.69 517.114 694.098C517.114 678.503 514.467 664.538 509.312 651.249C504.017 637.961 496.634 626.571 486.744 617.08C477.27 607.589 465.568 600.131 451.638 594.708C437.707 589.283 421.963 586.571 404.551 586.571H381.007V801.487ZM278.473 501.961H430.324C457.21 501.961 482.285 507.249 505.69 517.69C529.372 528.267 549.991 542.368 567.405 559.994C585.238 577.351 599.168 597.69 609.338 621.148C619.508 644.199 624.523 668.47 624.523 693.961C624.523 719.452 619.508 743.318 609.338 766.774C599.587 789.824 585.795 810.3 567.962 827.928C550.548 845.553 529.931 859.655 506.247 870.232C482.844 880.809 457.628 885.961 430.324 885.961H278.473V501.961Z" fill="white"/>
<path d="M133.856 654.778C133.856 646.763 135.374 639.281 138.546 632.201C141.718 624.856 145.994 618.443 151.511 613.099C157.028 607.757 163.373 603.616 170.683 600.544C178.269 597.47 186.268 596.002 194.544 596.002C202.82 596.002 210.543 597.47 217.854 600.544C225.44 603.616 232.06 607.757 237.577 613.099C243.094 618.443 247.369 624.856 250.543 632.201C253.716 639.281 255.232 646.763 255.232 654.778C255.232 662.793 253.716 670.539 250.543 677.886C247.369 684.967 243.094 691.111 237.577 696.455C232.06 701.797 225.44 705.94 217.854 709.012C210.543 712.084 202.82 713.553 194.544 713.553C186.268 713.553 178.269 712.084 170.683 709.012C163.373 705.94 157.028 701.797 151.511 696.455C145.994 691.111 141.718 684.967 138.546 677.886C135.374 670.539 133.856 662.793 133.856 654.778Z" fill="white"/>
<path d="M133.856 825.88C133.856 817.686 135.374 810.04 138.546 802.801C141.718 795.292 145.994 788.738 151.511 783.275C157.028 777.813 163.373 773.581 170.683 770.441C178.269 767.298 186.268 765.796 194.544 765.796C202.82 765.796 210.543 767.298 217.854 770.441C225.44 773.581 232.06 777.813 237.577 783.275C243.094 788.738 247.369 795.292 250.543 802.801C253.716 810.04 255.232 817.686 255.232 825.88C255.232 834.072 253.716 841.993 250.543 849.502C247.369 856.738 243.094 863.021 237.577 868.482C232.06 873.944 225.44 878.178 217.854 881.319C210.543 884.459 202.82 885.961 194.544 885.961C186.268 885.961 178.269 884.459 170.683 881.319C163.373 878.178 157.028 873.944 151.511 868.482C145.994 863.021 141.718 856.738 138.546 849.502C135.374 841.993 133.856 834.072 133.856 825.88Z" fill="white"/>
</svg>