<svg width="23" height="17" viewBox="0 0 23 17" fill="none" xmlns="http://www.w3.org/2000/svg">
<path fill-rule="evenodd" clip-rule="evenodd" d="M4.25581 3.57073C5.89425 2.22723 8.09934 1.25 10.55 1.25C13.0007 1.25 15.2058 2.22722 16.8442 3.5707C18.4664 4.90083 19.6182 6.66309 19.8432 8.32236C19.8477 8.35528 19.8499 8.38845 19.85 8.42166C19.8535 10.235 18.6457 12.0347 16.9768 13.3404C16.9456 13.3647 16.9143 13.389 16.8827 13.4131L16.2612 12.9412L15.6464 12.4583L14.7373 11.7848L14.1694 11.2871L13.5446 10.8349C13.6057 10.7844 13.6657 10.7322 13.7247 10.6782C15.0623 9.45417 15.085 7.35071 13.7739 6.10304C11.9897 4.40525 9.19961 4.38495 7.39137 6.04212L6.80914 5.55971L6.20251 5.10396L5.45506 4.53432L4.82864 4.07195L4.25581 3.57073ZM6 6.66142L5.40044 6.18617L4.43583 5.44303L3.83919 4.98238L3.23173 4.53432C2.15964 5.69347 1.43087 7.03874 1.25681 8.32235C1.25235 8.35526 1.25007 8.38844 1.25001 8.42165C1.24643 10.235 2.45424 12.0347 4.12317 13.3404C5.81579 14.6646 8.11435 15.593 10.55 15.593C12.4358 15.593 14.2394 15.0364 15.7432 14.1706L15.1096 13.665L14.4266 13.1724L13.6386 12.5884L13 12.0804L12.3441 11.5557C10.7015 12.2315 8.75305 11.939 7.37529 10.6782C6.35435 9.74396 6.09942 8.29738 6.61894 7.11004L6 6.66142ZM8.88245 6.72787C9.32265 6.25398 9.94197 6.12821 10.55 6.12821C11.158 6.12821 11.7773 6.25397 12.2175 6.72789C12.6447 7.18777 12.749 7.81379 12.749 8.42314C12.749 8.94396 12.6728 9.47705 12.3832 9.90779L11.7824 9.45535L11.1736 9L9.88383 8L9.25856 7.5L8.67653 7C8.73497 6.90434 8.80315 6.81325 8.88245 6.72787ZM10.2738 9.95319L9.17113 9.09505L8.35113 8.46482C8.35588 9.06081 8.46497 9.66881 8.88328 10.1177C9.32389 10.5905 9.94329 10.7148 10.55 10.7148C10.759 10.7148 10.9695 10.7001 11.1736 10.6614L10.2738 9.95319Z" fill="#AAAAAA"/>
<path fill-rule="evenodd" clip-rule="evenodd" d="M1.04082 0.362402C1.26876 0.0674184 1.69267 0.0130703 1.98766 0.241012L21.7876 15.541C22.0826 15.7689 22.1369 16.1928 21.909 16.4878C21.681 16.7828 21.2571 16.8371 20.9621 16.6092L1.16221 1.30924C0.867223 1.0813 0.812875 0.657386 1.04082 0.362402Z" fill="#AAAAAA"/>
</svg>
