<svg width="24" height="24" viewBox="0 0 24 24" fill="none" xmlns="http://www.w3.org/2000/svg">
<path d="M11.55 13.9648C12.5994 13.9648 12.999 13.5228 12.999 12.4231C12.999 11.3235 12.5994 10.8782 11.55 10.8782C10.5006 10.8782 10.101 11.3235 10.101 12.4231C10.101 13.5228 10.5006 13.9648 11.55 13.9648Z" fill="#AAAAAA"/>
<path fill-rule="evenodd" clip-rule="evenodd" d="M20.1 12.4231C20.1058 15.4007 16.05 18.843 11.55 18.843C7.05 18.843 2.99414 15.4007 3.00001 12.4231C3.38363 9.59411 7.05 6 11.55 6C16.05 6 19.7164 9.59406 20.1 12.4231ZM7.86897 15.2315C6.21192 13.7152 6.18196 11.1081 7.80914 9.55971C9.90451 7.56581 13.1955 7.56581 15.2909 9.55971C16.918 11.1081 16.8881 13.7152 15.231 15.2315C13.1505 17.1354 9.94951 17.1354 7.86897 15.2315Z" fill="#AAAAAA"/>
<path d="M11.55 13.9648C12.5994 13.9648 12.999 13.5228 12.999 12.4231C12.999 11.3235 12.5994 10.8782 11.55 10.8782C10.5006 10.8782 10.101 11.3235 10.101 12.4231C10.101 13.5228 10.5006 13.9648 11.55 13.9648Z" stroke="#AAAAAA" stroke-width="1.5" stroke-linecap="round" stroke-linejoin="round"/>
<path fill-rule="evenodd" clip-rule="evenodd" d="M20.1 12.4231C20.1058 15.4007 16.05 18.843 11.55 18.843C7.05 18.843 2.99414 15.4007 3.00001 12.4231C3.38363 9.59411 7.05 6 11.55 6C16.05 6 19.7164 9.59406 20.1 12.4231ZM7.86897 15.2315C6.21192 13.7152 6.18196 11.1081 7.80914 9.55971C9.90451 7.56581 13.1955 7.56581 15.2909 9.55971C16.918 11.1081 16.8881 13.7152 15.231 15.2315C13.1505 17.1354 9.94951 17.1354 7.86897 15.2315Z" stroke="#AAAAAA" stroke-width="1.5" stroke-linecap="round" stroke-linejoin="round"/>
</svg>
