<?xml version="1.0" encoding="utf-8"?>
<!-- Generator: Adobe Illustrator 24.1.0, SVG Export Plug-In . SVG Version: 6.00 Build 0)  -->
<svg version="1.1" id="레이어_1" xmlns="http://www.w3.org/2000/svg" xmlns:xlink="http://www.w3.org/1999/xlink" x="0px"
	 y="0px" viewBox="0 0 24.2 23.7" style="enable-background:new 0 0 24.2 23.7;" xml:space="preserve">
<style type="text/css">
	.st0{fill:#C19DE0;}
</style>
<g>
	<path class="st0" d="M7.1,9.5C6.6,7,6.9,4.5,7.8,2.4c-3.4,1.8-5.7,5.2-5.7,9.2c0,5.8,4.9,10.5,11,10.5c1.8,0,3.5-0.4,5-1.2
		c0.5-0.6,0.9-1.2,1.3-1.8C13.7,19.9,8.3,15.7,7.1,9.5z"/>
</g>
<g>
	<path d="M12.1,22.6c-6.1,0-11-4.8-11-10.7s4.9-10.7,11-10.7c0.1,0,0.1,0,0.2,0c0.3,0,0.6,0.2,0.7,0.4c0.1,0.2,0.1,0.5-0.1,0.7
		c-1.6,1.7-2.5,4-2.5,6.3c0,5.1,4.1,9.2,9.3,9.4c0.3,0,0.5,0.2,0.6,0.4c0.1,0.2,0.1,0.5-0.1,0.7C18.2,21.3,15.2,22.6,12.1,22.6z
		 M11,2.6c-4.8,0.6-8.5,4.5-8.5,9.3c0,5.2,4.3,9.4,9.6,9.4c2.2,0,4.4-0.8,6.1-2.1C13,18.3,9.1,13.9,9.1,8.5C9.1,6.4,9.7,4.3,11,2.6z
		"/>
</g>
<g>
	<path d="M19.3,7.2c0,0-0.1,0-0.1,0l-3.1-0.8c-0.2-0.1-0.4-0.3-0.3-0.6c0.1-0.2,0.3-0.4,0.6-0.3l3.1,0.8c0.2,0.1,0.4,0.3,0.3,0.6
		C19.7,7.1,19.5,7.2,19.3,7.2z"/>
</g>
<g>
	<path d="M17.4,8.3c0,0-0.1,0-0.1,0c-0.2-0.1-0.4-0.3-0.3-0.6l0.8-3c0.1-0.2,0.3-0.4,0.6-0.3c0.2,0.1,0.4,0.3,0.3,0.6l-0.8,3
		C17.8,8.1,17.6,8.3,17.4,8.3z"/>
</g>
<g>
	<path d="M22.7,4.3C22.7,4.3,22.7,4.3,22.7,4.3l-1.9-0.5c-0.2,0-0.3-0.2-0.2-0.4c0-0.2,0.2-0.3,0.4-0.2l1.9,0.5
		c0.2,0,0.3,0.2,0.2,0.4C23,4.2,22.9,4.3,22.7,4.3z"/>
</g>
<g>
	<path d="M21.6,5C21.5,5,21.5,5,21.6,5c-0.3-0.1-0.4-0.3-0.3-0.4l0.5-1.8c0.1-0.2,0.2-0.3,0.4-0.2c0.2,0.1,0.3,0.2,0.2,0.4l-0.5,1.8
		C21.8,4.9,21.7,5,21.6,5z"/>
</g>
</svg>
